<mxfile host="app.diagrams.net" modified="2021-04-04T11:06:12.834Z" agent="5.0 (Macintosh; Intel Mac OS X 10_15_7) AppleWebKit/537.36 (KHTML, like Gecko) Chrome/86.0.4240.193 Safari/537.36" etag="MeLoanDQEnj2KwKRxpka" version="14.5.7" type="github">
  <diagram id="ipqRNVBNFzj6rY6TFmv_" name="Page-1">
    <mxGraphModel dx="946" dy="536" grid="1" gridSize="10" guides="1" tooltips="1" connect="1" arrows="1" fold="1" page="1" pageScale="1" pageWidth="827" pageHeight="1169" math="0" shadow="0">
      <root>
        <mxCell id="0" />
        <mxCell id="1" parent="0" />
        <mxCell id="N-X79ZKmCSi5aGX1xVxe-4" style="edgeStyle=orthogonalEdgeStyle;rounded=0;orthogonalLoop=1;jettySize=auto;html=1;exitX=1;exitY=0.5;exitDx=0;exitDy=0;entryX=0.003;entryY=0.42;entryDx=0;entryDy=0;entryPerimeter=0;" edge="1" parent="1" source="N-X79ZKmCSi5aGX1xVxe-1" target="N-X79ZKmCSi5aGX1xVxe-2">
          <mxGeometry relative="1" as="geometry" />
        </mxCell>
        <mxCell id="N-X79ZKmCSi5aGX1xVxe-5" style="edgeStyle=orthogonalEdgeStyle;rounded=0;orthogonalLoop=1;jettySize=auto;html=1;exitX=1;exitY=0.5;exitDx=0;exitDy=0;entryX=0;entryY=0.5;entryDx=0;entryDy=0;" edge="1" parent="1" source="N-X79ZKmCSi5aGX1xVxe-1" target="N-X79ZKmCSi5aGX1xVxe-3">
          <mxGeometry relative="1" as="geometry" />
        </mxCell>
        <mxCell id="N-X79ZKmCSi5aGX1xVxe-1" value="DefaultSqlSession#getMapper" style="rounded=1;whiteSpace=wrap;html=1;" vertex="1" parent="1">
          <mxGeometry x="10" y="170" width="230" height="60" as="geometry" />
        </mxCell>
        <mxCell id="N-X79ZKmCSi5aGX1xVxe-2" value="从MapperRegistry中如下成员变量&lt;br&gt;&lt;pre&gt;Map&amp;lt;Class&amp;lt;?&amp;gt;, MapperProxyFactory&amp;lt;?&amp;gt;&amp;gt;&lt;/pre&gt;&lt;pre&gt;根据接口类型获取对应的MapperProxyFactory&lt;/pre&gt;" style="rounded=1;whiteSpace=wrap;html=1;" vertex="1" parent="1">
          <mxGeometry x="320" y="90" width="320" height="100" as="geometry" />
        </mxCell>
        <mxCell id="N-X79ZKmCSi5aGX1xVxe-3" value="MapperProxyFactory#newInstance&lt;br&gt;返回Mapper接口的动态代理对象MapperProxy" style="rounded=1;whiteSpace=wrap;html=1;" vertex="1" parent="1">
          <mxGeometry x="320" y="240" width="320" height="70" as="geometry" />
        </mxCell>
      </root>
    </mxGraphModel>
  </diagram>
</mxfile>
